<?xml version="1.0" encoding="UTF-8"?>
<svg width="24px" height="22px" viewBox="0 0 24 22" version="1.1" xmlns="http://www.w3.org/2000/svg" xmlns:xlink="http://www.w3.org/1999/xlink">
    <title>'user'</title>
    <g id="contact" stroke="none" stroke-width="1" fill="none" fill-rule="evenodd">
        <g id="contact3-2" transform="translate(-371.000000, -14.000000)" fill="#333333" fill-rule="nonzero">
            <g id="contact-inner" transform="translate(345.500000, 12.000000)">
                <g id="contact-1" transform="translate(25.500000, 2.000000)">
                    <path d="M9.75,12.5 C6.29822031,12.5 3.49999999,9.7017797 3.49999999,6.25000001 C3.49999999,2.79822032 6.29822031,0 9.75,0 C13.2017797,0 16,2.79822032 16,6.25000001 C15.994494,9.69949647 13.1994965,12.494494 9.75,12.5 Z M9.75,2.00000001 C7.40278982,2.00000001 5.50000001,3.90278982 5.50000001,6.25000001 C5.50000001,8.59721019 7.40278982,10.5 9.75,10.5 C12.0972102,10.5 14,8.59721019 14,6.25000001 C13.9972448,3.90393203 12.096068,2.00275524 9.75,2.00000001 Z" id="形状"></path>
                    <path d="M18.5,22 C17.9477153,22 17.5,21.5522848 17.5,21 C17.5,16.315 14.025,12.5 9.75,12.5 C5.475,12.5 2,16.315 2,21 C1.99991545,21.552225 1.55222496,21.9998469 1,21.9998469 C0.447775028,21.9998469 0,21.552225 0,21 C0,15.21 4.37500001,10.5 9.75,10.5 C15.125,10.5 19.5,15.21 19.5,21 C19.5,21.5522848 19.0522847,22 18.5,22 L18.5,22 Z M18,12 C17.4477152,12 17,11.5522848 17,11 C17,10.4477153 17.4477152,10 18,10 C19.3806173,9.99986633 20.4997579,8.88061736 20.4997579,7.50000002 C20.4997579,6.11938266 19.3806173,5.00013369 18,5.00000002 C17.447775,4.99991547 17.0001531,4.55222499 17.0001531,4.00000002 C17.0001531,3.44777505 17.447775,3.00000002 18,3.00000002 C20.4852814,3.00000002 22.5,5.01471865 22.5,7.50000002 C22.5,9.98528139 20.4852814,12 18,12 Z" id="形状"></path>
                    <path d="M23,18 C22.4477152,18 22,17.5522848 22,17 C22,14.245 20.205,12 18,12 C17.4477152,12 17,11.5522848 17,11 C17,10.4477153 17.4477152,10 18,10 C21.31,10 24,13.14 24,17 C24,17.5522848 23.5522847,18 23,18 Z" id="路径"></path>
                </g>
            </g>
        </g>
    </g>
</svg>