<svg t="1682492717476" class="icon" viewBox="0 0 1024 1024" version="1.1" xmlns="http://www.w3.org/2000/svg" p-id="3524" width="200" height="200"><path d="M875.466 674.753c-34.694-34.695-75.852-60.581-120.75-76.543 23.679-11.749 45.549-27.397 64.787-46.636 46.478-46.477 72.075-108.272 72.075-174.001s-25.597-127.524-72.075-174.002c-46.478-46.477-108.272-72.074-174.001-72.074-48.096 0-94.072 13.724-133.492 39.289-39.425-25.566-85.409-39.289-133.508-39.289-65.729 0-127.525 25.597-174.002 72.074-46.478 46.477-72.075 108.272-72.075 174.002 0 65.73 25.596 127.524 72.075 174.001 19.239 19.238 41.108 34.887 64.789 46.636-44.9 15.963-86.056 41.848-120.752 76.543C89.998 733.291 56.548 810.216 53.53 892.504l43.099 0c2.995-70.777 31.963-136.894 82.365-187.293 49.325-49.325 113.699-78.118 182.765-82.134 5.55 0.37 11.129 0.571 16.741 0.571s11.193-0.201 16.742-0.571c69.066 4.016 133.441 32.809 182.766 82.134 50.401 50.399 79.369 116.516 82.365 187.293l43.098 0c-3.017-82.288-36.467-159.213-95.005-217.751-14.726-14.726-30.619-27.858-47.465-39.325 21.792-6.812 44.504-10.998 67.758-12.351 5.55 0.37 11.129 0.571 16.741 0.571s11.193-0.201 16.742-0.571c69.066 4.016 133.441 32.809 182.766 82.134 50.401 50.399 79.369 116.516 82.365 187.293l43.098 0C967.454 810.216 934.004 733.291 875.466 674.753zM394.945 579.905c-5.457-0.269-10.939-0.407-16.443-0.407-5.503 0-10.984 0.139-16.443 0.407-104.275-8.398-186.56-95.933-186.56-202.333 0-111.937 91.066-203.004 203.003-203.004 111.937 0 203.004 91.068 203.004 203.004C581.506 483.972 499.22 571.507 394.945 579.905zM487.716 598.21c8.336-4.136 16.442-8.766 24.293-13.854 7.848 5.086 15.946 9.721 24.279 13.854-8.225 2.924-16.317 6.192-24.272 9.776C504.052 604.399 495.947 601.137 487.716 598.21zM661.945 579.905c-5.457-0.269-10.939-0.407-16.443-0.407s-10.984 0.139-16.443 0.407c-31.92-2.57-60.759-6.907-86.219-19.184 3.287-2.955 6.514-5.998 9.663-9.147 46.478-46.477 72.075-108.272 72.075-174.001s-25.597-127.524-72.075-174.002c-1.401-1.401-2.817-2.781-4.246-4.144 28.894-15.84 62.034-24.858 97.245-24.858 111.937 0 203.004 91.068 203.004 203.004C848.506 483.972 766.22 571.507 661.945 579.905z" fill="#333333" p-id="3525"></path><path d="M834.074 832.574" fill="#333333" p-id="3526"></path></svg>